<?xml version="1.0" encoding="UTF-8"?>
<!-- Generated by Pixelmator Pro 3.5.5 -->
<svg width="1280" height="640" viewBox="0 0 1280 640" xmlns="http://www.w3.org/2000/svg">
    <g id="Group-copy">
        <g id="Group">
            <path id="Path" fill="#333333" stroke="none" d="M 274.623657 530.606079 L 386.422455 530.606079 C 387.951599 530.606079 389.310883 530.096375 390.330322 529.246826 C 391.519653 528.397278 392.029388 526.868164 392.029388 524.829224 L 392.029388 523.469971 C 392.029388 521.431091 391.519653 519.901917 390.670105 519.052429 C 389.650665 518.202881 388.291412 517.863037 386.592346 517.863037 L 289.57547 517.863037 C 285.497711 517.863037 282.099548 516.503784 279.041229 513.785278 C 275.98291 511.066772 274.453735 507.158936 274.453735 502.061707 L 274.453735 489.658447 C 274.453735 484.561279 275.98291 480.653412 279.041229 477.934875 C 282.099548 475.21637 285.497711 473.857117 289.57547 473.857117 L 408.170532 473.857117 L 408.170532 489.828369 L 296.201843 489.828369 C 294.332855 489.828369 292.973602 490.168213 292.124054 491.017761 C 291.104614 491.697388 290.764801 493.226501 290.764801 495.265442 L 290.764801 496.624664 C 290.764801 498.663574 291.274536 500.022797 292.463898 501.042236 C 293.653229 501.891785 295.012482 502.401489 296.371735 502.401489 L 393.218719 502.401489 C 397.296509 502.401489 400.694641 503.930695 403.75296 506.819092 C 406.811279 509.70752 408.340454 513.615356 408.340454 518.542664 L 408.340454 530.945923 C 408.340454 536.043091 406.811279 539.950928 403.75296 542.669434 C 400.694641 545.388 397.296509 546.747192 393.218719 546.747192 L 274.623657 546.747192 L 274.623657 530.606079 Z"/>
            <path id="path1" fill="#333333" stroke="none" d="M 497.881439 560 L 481.740265 560 L 481.740265 546.577332 L 438.24408 546.577332 C 436.20517 546.577332 434.336212 546.237549 432.467224 545.557922 C 430.598267 544.878235 429.069092 543.858826 427.709839 542.499573 C 426.350586 541.14032 425.161255 539.441223 424.311707 537.572266 C 423.462158 535.703247 422.952454 533.324585 422.952454 530.776001 L 422.952454 489.828369 C 422.952454 487.279785 423.462158 485.071014 424.311707 483.032104 C 425.161255 480.993256 426.350586 479.294189 427.709839 477.934875 C 429.069092 476.575653 430.768158 475.556213 432.467224 474.876587 C 434.336212 474.19696 436.20517 473.857117 438.24408 473.857117 L 541.547485 473.857117 C 543.416504 473.857117 545.285461 474.19696 547.15448 475.046509 C 549.023438 475.726135 550.552612 476.915436 552.081787 478.274719 C 553.440979 479.633972 554.630371 481.333038 555.479919 483.371948 C 556.329468 485.410797 556.839172 487.619629 556.839172 489.998291 L 556.839172 530.945923 C 556.839172 533.494507 556.329468 535.873169 555.479919 537.742188 C 554.630371 539.611145 553.440979 541.310242 552.081787 542.669434 C 550.722534 544.028687 549.023438 545.048157 547.15448 545.727783 C 545.285461 546.407471 543.416504 546.747192 541.547485 546.747192 L 497.881439 546.747192 L 497.881439 560 Z M 444.53064 530.606079 L 481.910187 530.606079 L 481.910187 512.595886 L 498.051331 512.595886 L 498.051331 530.606079 L 535.091064 530.606079 C 536.620239 530.606079 537.979492 529.926453 538.998901 528.737061 C 540.188293 527.547729 540.697998 525.848694 540.697998 523.809814 L 540.697998 496.284882 C 540.697998 494.245972 540.188293 492.716827 539.338745 491.357544 C 538.319275 490.168213 536.960022 489.488586 535.260986 489.488586 L 444.870453 489.488586 C 442.831573 489.488586 441.472321 490.168213 440.622772 491.357544 C 439.773254 492.546906 439.263519 494.245972 439.263519 496.284882 L 439.263519 523.809814 C 439.263519 525.848694 439.773254 527.377808 440.792694 528.737061 C 441.812134 530.096375 443.001465 530.606079 444.53064 530.606079 Z"/>
            <path id="path2" fill="#333333" stroke="none" d="M 705.33783 530.606079 L 705.33783 546.577332 L 586.91272 546.577332 C 584.873779 546.577332 583.004822 546.237549 581.135864 545.557922 C 579.266907 544.878235 577.737732 543.858826 576.378418 542.499573 C 575.019226 541.14032 573.829834 539.441223 572.980286 537.572266 C 572.130798 535.703247 571.621094 533.324585 571.621094 530.776001 L 571.621094 473.857117 L 587.762207 473.857117 L 587.762207 523.979675 C 587.762207 526.018616 588.271912 527.547729 589.461304 528.906982 C 590.650635 530.096375 592.009888 530.776001 593.369141 530.776001 L 705.33783 530.776001 Z"/>
            <path id="path3" fill="#333333" stroke="none" d="M 853.836609 546.577332 L 720.289673 546.577332 L 720.289673 518.202881 C 720.289673 513.275574 721.818848 509.367676 724.877136 506.479309 C 727.935486 503.590881 731.333618 502.061707 735.411377 502.061707 L 832.258362 502.061707 C 833.787537 502.061707 835.14679 501.551941 836.166199 500.702423 C 837.355591 499.852905 837.865295 498.32373 837.865295 496.284882 L 837.865295 495.09552 C 837.865295 493.05661 837.355591 491.527466 836.506042 490.847839 C 835.486572 490.168213 834.12738 489.658447 832.428284 489.658447 L 720.459595 489.658447 L 720.459595 473.687225 L 839.054626 473.687225 C 843.132385 473.687225 846.530579 475.046509 849.588928 477.764984 C 852.647217 480.483521 854.00647 484.391388 854.00647 489.488586 L 854.00647 501.891785 C 854.00647 506.989014 852.477295 510.896851 849.588928 513.615356 C 846.530579 516.333862 843.132385 517.693115 839.054626 517.693115 L 742.037781 517.693115 C 740.168762 517.693115 738.809509 518.032959 737.960022 518.882507 C 736.940552 519.732056 736.600769 521.091248 736.600769 523.300049 L 736.600769 530.436157 L 854.176392 530.436157 L 854.176392 546.577332 Z"/>
            <path id="path4" fill="#333333" stroke="none" d="M 987.383423 473.687225 C 989.252441 473.687225 991.121399 474.027039 992.990417 474.876587 C 994.859375 475.556213 996.38855 476.745575 997.917664 478.104797 C 999.276917 479.46405 1000.466309 481.163116 1001.315857 483.202026 C 1002.165344 485.240906 1002.675049 487.449707 1002.675049 489.828369 L 1002.675049 502.231628 C 1002.675049 504.780212 1002.165344 507.158936 1001.315857 509.027893 C 1000.466309 510.896851 999.276917 512.595886 997.917664 513.9552 C 996.558472 515.314453 994.859375 516.333862 992.990417 517.013489 C 991.121399 517.693115 989.252441 518.032959 987.383423 518.032959 L 884.929565 518.032959 L 884.929565 546.577332 L 868.788391 546.577332 L 868.788391 473.857117 L 987.383423 473.857117 Z M 884.929565 489.658447 L 884.929565 502.061707 L 980.75708 502.061707 C 982.116333 502.061707 983.475586 501.721863 984.664978 501.042236 C 985.854309 500.36264 986.533875 499.003357 986.533875 496.964478 L 986.533875 495.265442 C 986.533875 493.226501 986.02417 491.697388 984.834839 490.847839 C 983.81543 489.998291 982.286255 489.488586 980.587158 489.488586 L 884.929565 489.488586 Z"/>
        </g>
        <g id="g1">
            <g id="g2">
                <g id="g3">
                    <g id="g4">
                        <path id="path5" fill="#ce8b2c" fill-rule="evenodd" stroke="none" d="M 719.949829 388.054108 C 698.371704 407.763336 679.851807 418.297546 640.773193 438.856293 C 604.413086 422.375336 580.626099 405.894348 560.067383 389.923096 C 531.52301 367.835175 511.134186 331.81488 509.43512 309.72699 L 495.162933 99.552063 C 591.330261 74.575745 693.78418 75.085449 782.305725 101.25116 L 767.693726 309.217285 C 765.824707 328.076935 749.003967 364.606964 719.949829 388.054108 L 719.949829 388.054108 Z"/>
                        <path id="path6" fill="#000000" stroke="none" d="M 640.773193 439.875732 L 640.263489 439.705811 C 602.034424 422.375336 577.907654 405.214722 559.217834 390.602722 C 545.795166 380.238373 533.222107 365.796295 523.537415 350.164886 C 514.532288 335.552856 508.925385 320.770935 508.075836 309.557068 L 493.80368 98.532593 L 494.653198 98.362671 C 518.610046 92.076111 543.076721 87.488647 567.883118 84.430298 C 592.349731 81.372009 617.156128 79.842834 641.45282 80.012756 C 665.919434 80.182617 690.046204 81.881714 713.66333 85.279846 C 737.280396 88.677979 760.557617 93.605347 782.475647 100.061768 L 783.155273 100.231689 L 768.713196 309.047363 C 767.693726 319.241791 762.596497 333.513947 754.950684 347.106506 C 748.494263 358.490295 737.450317 374.971252 720.629456 388.563812 C 709.925354 398.248535 700.07074 405.894348 687.49762 413.710083 C 675.434265 421.185974 661.501831 428.831787 641.282959 439.535889 L 640.773193 439.875732 Z M 496.012451 100.231689 L 510.114716 309.557068 C 510.964264 320.431122 516.571167 334.87323 525.23645 349.145416 C 534.751221 364.606964 547.15448 378.709229 560.407227 389.073547 C 578.927063 403.515656 602.883972 420.506348 640.603271 437.666992 C 679.681946 417.108215 697.692017 406.743896 719.270203 387.20459 L 719.270203 387.20459 C 735.921082 373.951843 746.795166 357.640778 753.251648 346.256989 C 760.727539 332.834351 765.824707 318.901978 766.844177 308.877441 L 781.286255 101.590942 C 759.538208 95.304382 736.77063 90.377075 713.493408 86.978882 C 690.046204 83.58075 665.919434 81.881714 641.622742 81.711853 C 617.32605 81.541931 592.689514 83.071045 568.222961 86.129395 C 543.756287 89.527527 519.629517 94.115051 496.012451 100.231689 Z"/>
                    </g>
                    <g id="g5">
                        <path id="path7" fill="#ce8b2c" fill-rule="evenodd" stroke="none" d="M 751.212708 302.251068 L 764.295593 116.542786 C 688.007385 92.246033 596.767273 91.90625 512.66333 113.994141 L 525.916077 302.251068 C 527.27533 321.790375 541.377625 351.694031 568.392822 374.63147 C 584.703918 388.393951 616.476501 411.671173 639.923645 420.506348 C 666.938904 406.743896 691.575439 389.753174 711.114746 372.932404 C 735.411377 350.674561 749.853516 323.31955 751.212708 302.251068 Z"/>
                        <path id="path8" fill="#000000" stroke="none" d="M 640.093567 421.525818 L 639.753784 421.355896 C 629.219543 417.447998 615.796875 410.142029 601.014954 400.117523 C 589.461304 392.301788 577.227966 383.296722 567.883118 375.311096 C 555.309998 364.606964 544.605835 351.524109 536.790161 337.591705 C 529.993835 325.188538 525.746216 312.615417 525.066528 302.251068 L 511.813782 113.314514 L 512.66333 113.144653 C 533.56189 107.707581 555.140076 103.4599 576.888184 100.741394 C 598.46637 98.022888 620.214478 96.833557 641.792664 97.003479 C 663.37085 97.17334 684.609192 98.872375 705.167969 101.930786 C 725.896606 104.989075 746.11554 109.74646 764.97522 115.693237 L 765.654846 115.863098 L 752.572021 302.42099 C 751.892395 313.125122 747.814575 325.358429 741.018311 337.761627 C 733.882263 350.674561 724.027588 363.077759 712.304016 373.61203 L 712.304016 373.61203 C 691.065674 391.961945 666.259216 408.442932 640.773193 421.355896 L 640.093567 421.525818 Z M 513.6828 114.673767 L 526.935547 302.081177 C 527.615173 312.275574 531.692932 324.508911 538.489197 336.572327 C 546.13501 350.334747 556.66925 363.247681 569.072449 373.781921 C 578.247437 381.597656 590.650635 390.942566 602.034424 398.418457 C 616.476501 408.103119 629.559326 415.239227 639.923645 419.316986 C 665.069885 406.573975 689.536499 390.262878 710.60498 372.082855 C 722.158691 361.548615 731.843323 349.315338 738.979431 336.742188 C 745.605835 324.678802 749.513672 312.785309 750.363159 302.251068 L 750.363159 302.251068 L 763.276123 117.222412 C 744.756287 111.275635 724.877136 106.858032 704.488281 103.799744 C 684.099487 100.741394 662.861084 99.042297 641.45282 98.872375 C 620.044556 98.702515 598.46637 99.891846 576.888184 102.610352 C 555.479919 105.328918 534.241516 109.406677 513.6828 114.673767 Z"/>
                    </g>
                    <g id="g6">
                        <path id="path9" fill="#ce8b2c" fill-rule="evenodd" stroke="none" d="M 708.226257 367.835175 C 689.536499 383.976349 664.220398 401.986511 640.093567 413.540161 C 618.515381 406.913818 586.572876 382.107361 571.111328 368.854645 C 544.266052 345.747284 533.392029 321.450562 531.692932 298.513123 L 518.610046 118.921448 C 598.636292 97.853027 686.138367 97.853027 758.68866 120.960327 L 745.775757 298.17334 C 744.07666 321.960297 733.032715 344.557922 708.226257 367.835175 Z"/>
                    </g>
                    <g id="g7">
                        <path id="path10" fill="#000000" stroke="none" d="M 594.558533 269.798828 L 534.411438 269.798828 L 526.255859 158.169983 L 527.27533 158.169983 L 526.935547 157.150513 C 545.285461 152.053314 564.315063 148.315338 583.85437 145.936646 C 600.675171 143.897766 618.005676 143.048218 636.695435 143.048218 L 636.695435 144.067657 L 637.714905 144.067657 L 637.714905 204.044861 L 594.558533 204.044861 L 594.558533 214.409149 L 594.558533 232.589233 L 594.558533 232.589233 L 594.558533 269.798828 Z M 536.280396 267.92984 L 592.519592 267.92984 L 592.519592 232.589233 L 592.519592 232.589233 L 592.519592 214.409149 L 592.519592 202.005951 L 635.676025 202.005951 L 635.676025 144.917206 C 617.495972 144.917206 600.675171 145.936646 584.024231 147.805634 C 564.99469 150.014404 546.13501 153.75238 528.124878 158.679688 L 536.280396 267.92984 Z"/>
                    </g>
                    <g id="g8">
                        <path id="path11" fill="#00678c" fill-rule="evenodd" stroke="none" d="M 749.513672 171.422699 L 642.132446 171.592621 L 642.302368 203.195343 L 747.134949 203.195343 L 749.513672 171.422699 Z"/>
                    </g>
                    <g id="g9">
                        <path id="path12" fill="#000000" stroke="none" d="M 642.47229 408.103119 L 641.962524 407.253601 L 640.943115 407.253601 L 640.943115 320.940857 L 641.962524 320.940857 L 641.962524 319.921387 C 647.73938 319.751495 654.705566 317.882507 659.972717 315.333923 L 666.259216 311.595978 C 672.375916 306.838593 676.963379 300.721924 679.851807 293.925659 C 682.400391 287.80899 683.759705 281.012695 683.759705 273.536804 L 684.779114 273.536804 L 684.779114 272.517365 L 742.887268 272.517365 L 741.018311 298.17334 L 741.018311 298.17334 C 739.998901 311.086243 736.600769 322.809845 730.484131 333.85379 C 725.21698 343.368591 717.741089 352.543549 707.036926 362.907898 C 695.992981 373.781921 668.638 394.850403 642.47229 408.103119 Z M 642.981995 321.960297 L 642.981995 405.724426 C 668.638 392.47168 694.973572 372.082855 705.677673 361.718536 C 716.211914 351.524109 723.517883 342.349152 728.785034 333.004242 C 734.901672 322.30011 738.129944 310.916351 739.149353 298.17334 L 739.149353 298.17334 L 740.84845 274.726135 L 685.968445 274.726135 C 685.798523 286.109924 682.400391 301.741394 667.61853 313.464966 L 666.938904 312.615417 L 667.448608 313.464966 L 660.992126 317.202911 L 660.482422 316.353363 L 660.992126 317.202911 C 655.555115 319.751495 648.75885 321.450562 642.981995 321.960297 Z"/>
                    </g>
                    <g id="g10">
                        <path id="path13" fill="#00678c" fill-rule="evenodd" stroke="none" d="M 538.319275 301.40155 C 538.659119 311.765869 542.906799 324.508911 548.853516 333.174164 L 636.18573 333.174164 L 636.015808 320.940857 C 624.801941 320.940857 607.641357 313.464966 600.845093 301.40155 L 538.319275 301.40155 L 538.319275 301.40155 Z"/>
                    </g>
                    <g id="g11">
                        <path id="path14" fill="#000000" stroke="none" d="M 639.074158 316.863098 C 633.807007 316.863098 628.709778 316.01355 623.782532 314.144562 C 618.685303 312.275574 614.2677 309.557068 610.359863 306.158936 C 601.864502 298.343231 597.277039 287.299286 597.277039 274.216431 L 599.315918 274.216431 C 599.315918 286.789551 603.563538 297.323792 611.719116 304.799683 C 615.28717 308.027924 619.704712 310.746429 624.462158 312.445496 C 629.049622 314.144562 633.976929 314.99411 639.074158 314.99411 C 649.438477 314.99411 659.123169 311.426056 666.259216 304.969604 C 674.244873 297.663574 678.662476 287.299286 678.662476 274.896057 L 679.681946 274.896057 L 678.662476 274.896057 L 678.662476 209.14209 L 599.315918 209.14209 L 599.315918 274.216431 L 597.277039 274.216431 L 597.277039 206.933258 L 680.531433 206.933258 L 680.531433 274.726135 C 680.531433 287.639069 676.113892 298.683014 667.61853 306.328827 C 660.142639 313.125122 649.948181 316.863098 639.074158 316.863098 Z"/>
                    </g>
                    <g id="g12">
                        <path id="path15" fill="#00678c" fill-rule="evenodd" stroke="none" d="M 684.779114 268.439606 L 742.207703 268.439606 L 744.756287 236.836884 L 684.779114 236.836884 L 684.779114 268.439606 L 684.779114 268.439606 Z M 636.355591 366.985657 L 577.227966 366.815735 C 589.461304 377.689758 617.665833 398.248535 636.18573 406.573975 L 636.355591 366.985657 L 636.355591 366.985657 Z"/>
                    </g>
                    <g id="g13">
                        <path id="path16" fill="#000000" fill-rule="evenodd" stroke="none" d="M 746.795166 206.08371 L 685.118896 206.08371 L 685.118896 233.438751 L 744.926208 233.438751 L 746.795166 207.10318 L 746.795166 206.08371 L 746.795166 206.08371 Z M 749.513672 168.36441 L 750.023376 159.529205 C 711.284607 147.635712 675.434265 144.067657 641.792664 144.067657 L 641.792664 168.36441 L 749.513672 168.36441 L 749.513672 168.36441 Z M 599.315918 298.17334 C 595.068237 290.357605 593.539063 281.862244 593.539063 273.536804 L 536.620239 273.536804 L 538.319275 298.003418 L 599.315918 298.17334 Z M 636.18573 362.907898 L 636.18573 337.251923 L 550.892395 337.082001 C 556.499329 345.917206 563.465515 354.072723 571.790955 362.05835 C 571.960876 362.228241 572.300659 362.568054 572.470581 362.737976 L 636.18573 362.907898 L 636.18573 362.907898 Z"/>
                    </g>
                </g>
                <g id="g14">
                    <path id="path17" fill="#000000" stroke="none" d="M 532.372559 141.009369 C 543.076721 138.460754 553.780823 136.421844 564.654846 134.722778 C 565.164612 134.722778 565.504395 134.382996 565.674316 134.213074 C 566.01416 133.87326 566.01416 133.533478 566.01416 132.85379 C 566.01416 132.683929 566.01416 132.683929 566.01416 132.514008 C 565.844238 132.004272 565.674316 131.494568 565.334473 131.324646 C 564.99469 131.154724 564.654846 131.154724 564.145142 131.154724 C 554.630371 132.683929 545.285461 134.382996 535.940613 136.591766 C 534.751221 136.93161 533.731812 136.761688 532.712341 136.082062 C 531.692932 135.572327 531.013306 134.552856 530.673462 133.193634 C 530.333679 132.004272 530.163757 130.814941 529.823914 129.795502 C 529.484131 128.436249 529.654053 127.246887 530.333679 126.227417 C 531.013306 125.208008 532.032715 124.698303 533.222107 124.358459 C 544.945679 121.639954 556.839172 119.601074 568.732605 117.901978 C 568.902527 119.431152 569.242371 120.960327 569.412292 122.31958 C 558.198425 123.848755 547.15448 125.887634 536.110474 128.436249 C 535.600769 128.60611 535.260986 128.776031 534.921143 128.945953 C 534.751221 129.285797 534.58136 129.62558 534.751221 130.305206 C 534.751221 130.475098 534.751221 130.475098 534.751221 130.64502 C 534.921143 131.154724 535.091064 131.494568 535.600769 131.66449 C 535.940613 131.834412 536.450317 131.834412 536.790161 131.834412 C 546.304932 129.795502 555.819702 127.926514 565.334473 126.567261 C 566.523865 126.397339 567.543274 126.567261 568.562744 127.246887 C 569.582153 127.926514 570.091919 128.945953 570.431702 130.305206 C 570.601624 131.494568 570.771545 132.683929 570.941406 133.87326 C 571.111328 135.232544 570.941406 136.421844 570.091919 137.441315 C 569.412292 138.290833 568.392822 138.800537 567.203491 139.140381 C 555.819702 140.839447 544.605835 143.048218 533.222107 145.766724 C 533.052185 144.067657 532.712341 142.538513 532.372559 141.009369 Z"/>
                    <path id="path18" fill="#000000" stroke="none" d="M 597.786743 139.140381 C 596.257568 139.310303 594.728394 139.480225 593.19928 139.480225 C 593.029358 138.120911 593.029358 136.93161 592.859436 135.572327 C 588.611755 135.91214 584.533997 136.421844 580.286316 136.93161 C 579.776611 136.93161 579.096985 136.93161 578.587219 136.761688 C 578.077515 136.591766 577.56781 136.421844 577.058105 136.082062 C 576.54834 135.742249 576.208557 135.402405 575.868774 134.8927 C 575.528931 134.382996 575.359009 133.703339 575.189087 133.023712 C 574.679382 129.115875 574.169678 125.37793 573.659973 121.470032 C 573.490051 120.790466 573.659973 120.110779 573.829834 119.431152 C 573.999756 118.751526 574.339539 118.241821 574.679382 117.901978 C 575.019226 117.392273 575.528931 117.05249 576.038635 116.882568 C 576.54834 116.542786 577.058105 116.372864 577.737732 116.372864 C 588.102051 115.01355 598.46637 114.164001 609.00061 113.484436 C 609.510315 113.484436 610.189941 113.484436 610.699707 113.654358 C 611.209351 113.824219 611.719116 114.164001 612.228821 114.503845 C 612.738586 114.843689 613.078369 115.353394 613.248291 115.863098 C 613.588074 116.372864 613.757996 117.05249 613.757996 117.732056 C 613.927917 121.639954 614.097839 125.547791 614.2677 129.455658 C 614.2677 130.135315 614.2677 130.814941 613.927917 131.494568 C 613.757996 132.004272 613.418152 132.514008 613.078369 133.023712 C 612.738586 133.363556 612.228821 133.703339 611.719116 134.043152 C 611.209351 134.213074 610.699707 134.382996 610.189941 134.382996 C 605.942261 134.552856 601.69458 134.8927 597.616821 135.232544 C 597.616821 136.591766 597.786743 137.781128 597.786743 139.140381 Z M 581.475647 132.344086 C 585.043701 131.834412 588.781677 131.494568 592.349731 131.154724 C 592.17981 129.455658 592.009888 127.756592 591.839966 126.057495 C 593.369141 125.887634 595.068237 125.717712 596.597412 125.547791 C 596.767273 127.246887 596.937195 128.945953 597.107117 130.64502 C 600.675171 130.305206 604.413086 130.135315 607.98114 129.795502 C 608.490906 129.795502 608.830688 129.62558 609.170471 129.115875 C 609.510315 128.776031 609.680237 128.266327 609.680237 127.756592 C 609.510315 125.208008 609.340393 122.489502 609.170471 119.940918 C 609.170471 119.431152 609.00061 118.921448 608.660767 118.581604 C 608.320984 118.241821 607.98114 118.071899 607.471436 118.071899 C 598.46637 118.581604 589.461304 119.431152 580.456238 120.450623 C 579.776611 120.450623 579.436768 120.790466 579.266907 121.130249 C 579.096985 121.470032 578.927063 121.979736 579.096985 122.489502 C 579.436768 125.038147 579.776611 127.756592 580.116394 130.305206 C 580.116394 130.814941 580.456238 131.324646 580.796021 131.66449 C 580.796021 132.344086 581.135864 132.344086 581.475647 132.344086 Z"/>
                    <path id="path19" fill="#000000" stroke="none" d="M 657.763855 129.62558 C 657.763855 131.154724 657.593994 132.683929 657.593994 134.213074 C 646.210205 133.703339 634.656555 133.533478 623.272766 133.87326 C 622.763062 133.87326 622.083435 133.87326 621.57373 133.703339 C 621.063965 133.533478 620.55426 133.193634 620.214478 132.85379 C 619.874634 132.514008 619.364929 132.004272 619.195007 131.494568 C 618.855164 130.984863 618.855164 130.305206 618.685303 129.62558 C 618.515381 124.188599 618.34552 118.751526 618.005676 113.314514 C 619.704712 113.314514 621.233887 113.144653 622.932983 113.144653 C 623.102844 117.901978 623.272766 122.659363 623.272766 127.416809 C 623.272766 127.926514 623.442688 128.436249 623.782532 128.776031 C 624.122314 129.115875 624.462158 129.285797 624.971863 129.285797 C 636.015808 128.945953 646.889832 129.115875 657.763855 129.62558 Z"/>
                    <path id="path20" fill="#000000" stroke="none" d="M 700.410522 138.290833 C 687.667542 136.421844 674.754578 135.062622 661.841675 134.382996 C 662.011536 131.66449 662.181458 128.945953 662.351379 126.227417 C 662.351379 124.868225 662.861084 123.678833 663.880554 122.999207 C 664.900024 122.149658 665.919434 121.809814 667.108765 121.979736 C 676.623596 122.659363 686.308289 123.508911 695.823059 124.868225 C 696.332764 124.868225 696.672607 124.868225 697.01239 124.698303 C 697.352234 124.528381 697.692017 124.018677 697.692017 123.508911 C 697.692017 123.33905 697.692017 123.169128 697.692017 123.169128 C 697.692017 122.659363 697.692017 122.149658 697.352234 121.979736 C 697.01239 121.809814 696.672607 121.639954 696.162842 121.470032 C 685.118896 119.940918 673.905029 118.921448 662.691223 118.241821 C 662.861084 116.712646 662.861084 115.183472 663.031006 113.654358 C 674.9245 114.333923 686.987915 115.523315 698.881409 117.05249 C 700.07074 117.222412 701.090149 117.732056 701.939697 118.581604 C 702.789246 119.431152 702.959167 120.620544 702.789246 122.149658 C 702.619385 123.33905 702.449463 124.528381 702.279541 125.717712 C 702.109619 127.076965 701.429993 128.266327 700.410522 128.776031 C 699.391113 129.455658 698.371704 129.62558 697.182312 129.455658 C 687.667542 128.096436 678.15271 127.246887 668.638 126.567261 C 668.128235 126.567261 667.61853 126.567261 667.448608 126.907043 C 667.108765 127.076965 666.938904 127.586731 666.938904 128.096436 C 666.938904 128.776031 666.768982 129.455658 666.768982 130.135315 C 678.15271 130.984863 689.706421 132.174194 700.920288 133.87326 C 700.920288 135.402405 700.750366 136.761688 700.410522 138.290833 Z"/>
                    <path id="path21" fill="#000000" stroke="none" d="M 743.397034 125.37793 C 743.906738 125.547791 744.416443 125.717712 744.926208 126.057495 C 745.435913 126.397339 745.775757 126.737183 746.11554 127.246887 C 746.455322 127.756592 746.625244 128.266327 746.795166 128.945953 C 746.965027 129.62558 746.965027 130.135315 746.795166 130.814941 C 746.455322 132.004272 746.285461 133.193634 745.945679 134.213074 C 745.775757 134.8927 745.435913 135.572327 745.09613 136.082062 C 744.756287 136.591766 744.246582 136.93161 743.736816 137.271393 C 743.227112 137.611237 742.717346 137.781128 742.037781 137.781128 C 741.528076 137.781128 740.84845 137.781128 740.338684 137.611237 C 730.484131 135.232544 720.629456 133.363556 710.60498 131.66449 C 710.095276 134.382996 709.755432 137.101471 709.245728 139.650085 C 707.716553 139.310303 706.187378 139.140381 704.658203 138.970459 C 705.677673 132.174194 706.867065 125.208008 707.886414 118.411682 C 719.779907 120.280701 731.673401 122.659363 743.397034 125.37793 Z M 712.134094 123.678833 C 711.964233 124.868225 711.794312 126.057495 711.62439 127.246887 C 720.969299 128.776031 730.314209 130.64502 739.659058 132.85379 C 739.998901 133.023712 740.508606 133.023712 740.84845 132.85379 C 741.188232 132.683929 741.528076 132.344086 741.697998 131.834412 C 741.697998 131.66449 741.697998 131.494568 741.867859 131.324646 C 742.037781 130.814941 741.867859 130.305206 741.697998 129.965424 C 741.358154 129.62558 741.018311 129.455658 740.508606 129.285797 C 730.993774 127.076965 721.479004 125.208008 712.134094 123.678833 Z"/>
                </g>
            </g>
            <path id="path22" fill="#000000" stroke="none" d="M 603.733459 223.074402 C 603.223755 222.224884 603.053894 221.205444 603.053894 220.186035 C 603.053894 219.166565 603.223755 218.147125 603.733459 217.297577 C 604.243225 216.448059 604.75293 215.768433 605.602478 215.428589 C 606.452026 214.918915 607.471436 214.748993 608.490906 214.748993 C 609.170471 214.748993 609.680237 214.748993 610.359863 214.918915 C 610.869568 215.088806 611.379272 215.258698 611.719116 215.428589 C 611.889038 215.598511 612.058899 215.768433 612.228821 215.938354 C 612.398743 216.108215 612.398743 216.278137 612.398743 216.448059 C 612.398743 216.617981 612.398743 216.957764 612.228821 217.127686 C 612.058899 217.297577 611.889038 217.637421 611.549194 217.637421 C 611.209351 217.297577 610.869568 216.957764 610.359863 216.787903 C 609.850159 216.617981 609.340393 216.448059 608.830688 216.448059 C 608.151062 216.448059 607.641357 216.617981 607.131592 216.957764 C 606.621887 217.297577 606.282104 217.637421 605.942261 218.147125 C 605.602478 218.65683 605.602478 219.336487 605.602478 220.016113 C 605.602478 220.69574 605.772339 221.375336 605.942261 221.885101 C 606.282104 222.394806 606.621887 222.90451 607.131592 223.074402 C 607.641357 223.414246 608.151062 223.584167 608.830688 223.584167 C 609.170471 223.584167 609.510315 223.584167 609.850159 223.414246 C 610.189941 223.414246 610.529785 223.244324 610.869568 223.074402 C 611.209351 222.90451 611.379272 222.734619 611.549194 222.734619 L 612.568665 224.433716 C 612.398743 224.603577 612.058899 224.773499 611.549194 224.94339 C 611.209351 225.113312 610.699707 225.283234 610.189941 225.283234 C 609.680237 225.453094 609.170471 225.453094 608.660767 225.453094 C 607.641357 225.453094 606.621887 225.283234 605.942261 224.773499 C 604.922852 224.603577 604.243225 223.92395 603.733459 223.074402 Z"/>
            <path id="path23" fill="#000000" stroke="none" d="M 623.272766 225.453094 L 621.063965 225.453094 L 621.063965 221.035553 L 616.476501 221.035553 L 616.476501 225.453094 L 614.2677 225.453094 L 614.2677 215.938354 C 614.2677 215.258698 614.607544 214.918915 615.457031 214.918915 C 615.796875 214.918915 616.136719 214.918915 616.476501 215.088806 L 616.476501 218.996674 L 621.063965 218.996674 L 621.063965 215.938354 C 621.063965 215.258698 621.403809 214.918915 622.253357 214.918915 C 622.59314 214.918915 622.932983 214.918915 623.272766 215.088806 L 623.272766 225.453094 Z"/>
            <path id="path24" fill="#000000" stroke="none" d="M 625.821411 216.108215 C 625.821411 215.258698 626.161194 214.918915 627.010742 214.918915 L 632.107971 214.918915 C 632.447754 214.918915 632.787598 214.918915 632.957458 215.088806 C 633.12738 215.258698 633.12738 215.428589 633.12738 215.768433 C 633.12738 215.938354 633.12738 216.278137 632.957458 216.448059 C 632.957458 216.617981 632.787598 216.787903 632.787598 216.787903 L 627.860291 216.787903 L 627.860291 219.166565 L 631.768127 219.166565 C 632.107971 219.166565 632.447754 219.166565 632.617676 219.336487 C 632.787598 219.506348 632.787598 219.67627 632.787598 220.016113 C 632.787598 220.186035 632.787598 220.525818 632.617676 220.69574 C 632.617676 220.865662 632.447754 221.035553 632.447754 221.035553 L 627.690369 221.035553 L 627.690369 223.414246 L 632.787598 223.414246 L 632.787598 225.283234 L 625.481567 225.283234 L 625.481567 216.108215 Z"/>
            <path id="path25" fill="#000000" stroke="none" d="M 635.845886 219.67627 C 635.506104 218.996674 635.336182 218.317047 634.996338 217.637421 C 634.826477 217.127686 634.656555 216.787903 634.656555 216.617981 C 634.656555 216.448059 634.486633 216.108215 634.486633 215.938354 C 634.486633 215.258698 634.826477 214.918915 635.676025 214.918915 C 636.015808 214.918915 636.355591 214.918915 636.525513 215.088806 C 636.695435 215.428589 636.865356 215.938354 637.035278 216.448059 C 637.205139 216.957764 637.375061 217.467499 637.714905 218.147125 C 637.884766 218.826752 638.224609 219.336487 638.39447 220.016113 C 638.564392 220.69574 638.904236 221.205444 639.074158 221.715179 C 639.244019 222.224884 639.583862 222.734619 639.753784 223.244324 C 639.923645 222.734619 640.263489 222.224884 640.433411 221.545258 C 640.603271 220.865662 640.943115 220.355896 641.113037 219.67627 C 641.45282 218.996674 641.622742 218.317047 641.792664 217.637421 C 641.962524 216.957764 642.302368 216.278137 642.47229 215.768433 C 642.642151 215.088806 643.151917 214.748993 643.831543 214.748993 C 644.001404 214.748993 644.341248 214.748993 644.511169 214.918915 C 644.681091 215.088806 644.850952 215.088806 645.020874 215.258698 C 644.850952 215.598511 644.850952 215.938354 644.511169 216.448059 C 644.341248 216.957764 644.001404 217.467499 643.831543 218.147125 C 643.491699 218.826752 643.321838 219.506348 642.981995 220.186035 C 642.642151 220.865662 642.47229 221.545258 642.132446 222.224884 C 641.792664 222.90451 641.622742 223.414246 641.282959 224.093872 C 641.113037 224.603577 640.773193 225.113312 640.603271 225.453094 L 638.564392 225.453094 C 638.39447 224.94339 638.054688 224.433716 637.714905 223.754028 C 637.375061 223.074402 637.035278 222.394806 636.865356 221.715179 C 636.525513 221.035553 636.18573 220.355896 635.845886 219.67627 Z"/>
            <path id="path26" fill="#000000" stroke="none" d="M 646.719971 216.108215 C 646.719971 215.258698 647.059753 214.918915 647.909302 214.918915 L 653.006531 214.918915 C 653.346313 214.918915 653.686096 214.918915 653.856018 215.088806 C 654.02594 215.258698 654.02594 215.428589 654.02594 215.768433 C 654.02594 215.938354 654.02594 216.278137 653.856018 216.448059 C 653.856018 216.617981 653.686096 216.787903 653.686096 216.787903 L 648.75885 216.787903 L 648.75885 219.166565 L 652.666687 219.166565 C 653.006531 219.166565 653.346313 219.166565 653.516235 219.336487 C 653.686096 219.506348 653.686096 219.67627 653.686096 220.016113 C 653.686096 220.186035 653.686096 220.525818 653.516235 220.69574 C 653.516235 220.865662 653.346313 221.035553 653.346313 221.035553 L 648.588928 221.035553 L 648.588928 223.414246 L 653.686096 223.414246 L 653.686096 225.283234 L 646.380127 225.283234 L 646.380127 216.108215 Z"/>
            <path id="path27" fill="#000000" stroke="none" d="M 656.574585 216.108215 C 656.574585 215.258698 656.914368 214.918915 657.763855 214.918915 L 660.652344 214.918915 C 661.501831 214.918915 662.181458 215.088806 662.691223 215.428589 C 663.200928 215.768433 663.710632 216.108215 664.050476 216.617981 C 664.39032 217.127686 664.560181 217.637421 664.560181 218.317047 C 664.560181 218.996674 664.39032 219.67627 664.050476 220.186035 C 663.710632 220.69574 663.37085 221.035553 662.691223 221.375336 C 662.861084 221.545258 663.031006 221.885101 663.37085 222.224884 C 663.540771 222.564728 663.880554 222.90451 664.050476 223.414246 C 664.220398 223.754028 664.560181 224.263794 664.730103 224.603577 C 664.900024 224.94339 665.069885 225.283234 665.239807 225.623016 L 662.691223 225.623016 C 662.521301 225.453094 662.351379 225.113312 662.181458 224.773499 C 662.011536 224.433716 661.841675 224.093872 661.671753 223.754028 C 661.501831 223.414246 661.331909 223.074402 660.992126 222.734619 C 660.822266 222.394806 660.652344 222.224884 660.482422 222.054962 L 659.802795 222.054962 C 659.632874 222.054962 659.462952 222.054962 659.293091 222.054962 C 659.123169 222.054962 658.953247 222.054962 658.783325 222.054962 L 658.783325 225.792938 L 656.574585 225.792938 L 656.574585 216.108215 Z M 661.671753 219.67627 C 662.011536 219.336487 662.181458 218.996674 662.181458 218.486969 C 662.181458 217.977203 662.011536 217.637421 661.671753 217.297577 C 661.331909 216.957764 660.822266 216.957764 660.142639 216.957764 L 658.613403 216.957764 L 658.613403 220.186035 C 658.783325 220.186035 658.783325 220.186035 659.123169 220.186035 C 659.293091 220.186035 659.632874 220.186035 659.802795 220.186035 C 660.652344 220.016113 661.162048 219.846191 661.671753 219.67627 Z"/>
            <path id="path28" fill="#000000" stroke="none" d="M 666.768982 216.108215 C 666.768982 215.258698 667.108765 214.918915 667.958313 214.918915 L 673.055481 214.918915 C 673.395325 214.918915 673.735168 214.918915 673.905029 215.088806 C 674.074951 215.258698 674.074951 215.428589 674.074951 215.768433 C 674.074951 215.938354 674.074951 216.278137 673.905029 216.448059 C 673.905029 216.617981 673.735168 216.787903 673.735168 216.787903 L 668.807861 216.787903 L 668.807861 219.166565 L 672.715698 219.166565 C 673.055481 219.166565 673.395325 219.166565 673.565247 219.336487 C 673.735168 219.506348 673.735168 219.67627 673.735168 220.016113 C 673.735168 220.186035 673.735168 220.525818 673.565247 220.69574 C 673.565247 220.865662 673.395325 221.035553 673.395325 221.035553 L 668.638 221.035553 L 668.638 223.414246 L 673.735168 223.414246 L 673.735168 225.283234 L 666.429138 225.283234 L 666.429138 216.108215 Z"/>
            <path id="path29" fill="#000000" stroke="none" d="M 717.571167 281.352539 C 715.532288 281.5224 716.211914 282.202087 711.794312 283.56131 C 707.37677 285.090454 701.939697 285.260376 697.182312 287.639069 C 683.249939 294.945099 682.23053 315.843628 669.657349 324.508911 C 660.652344 330.62558 651.137512 332.154724 642.812073 335.382935 L 642.812073 360.699066 C 650.797729 360.189362 659.462952 360.868988 668.298157 361.378693 C 667.108765 366.645813 663.880554 370.213867 661.501831 374.461548 C 660.652344 375.481018 663.37085 375.311096 666.089355 374.461548 C 671.186584 372.762482 674.9245 371.403259 678.662476 368.684723 C 683.249939 365.456512 683.419861 358.150482 689.196655 356.111603 C 692.934631 360.868988 702.109619 361.378693 707.37677 356.791229 C 702.279541 355.77179 700.07074 345.577362 701.260071 340.819977 C 702.449463 336.402405 703.468933 329.266296 704.488281 323.31955 C 705.677673 317.03299 705.507751 309.217285 707.37677 305.819153 C 710.095276 300.891846 713.323486 298.852936 716.041992 295.964508 C 718.760559 293.076111 721.309143 290.187683 720.629456 284.071014 C 720.459595 282.202087 719.440125 281.182617 717.571167 281.352539 Z M 703.129089 356.961151 C 700.07074 357.98056 694.293884 357.131012 692.764709 355.092163 C 693.274475 351.694031 696.672607 348.46579 698.541565 346.256989 C 699.051331 349.315338 701.429993 355.601868 703.129089 356.961151 Z M 712.983643 296.983948 C 710.435059 299.19278 707.546631 301.40155 705.847595 304.629761 C 704.148499 307.858002 703.808716 318.732056 701.599915 329.60611 C 699.730957 338.950989 696.332764 348.46579 689.706421 353.053253 C 688.856873 351.184265 689.366577 347.786133 687.837463 346.766724 C 687.157837 349.655121 686.308289 352.203735 685.288818 354.752319 C 681.890686 363.077759 676.113892 369.534271 665.919434 372.252777 C 670.167114 365.116669 674.414795 357.98056 673.395325 346.42691 C 669.997192 347.44635 670.846741 355.601868 667.448608 358.150482 C 665.239807 358.660217 662.861084 358.830078 660.652344 358.830078 C 654.875488 359 648.928772 358.320374 643.321838 358.490295 C 643.321838 358.490295 643.321838 337.421844 643.321838 337.421844 C 649.608337 334.533417 656.234741 333.85379 662.861084 330.62558 C 666.938904 328.58667 671.356445 326.207977 674.9245 323.149658 C 675.774048 322.470001 676.453674 321.620483 677.303162 320.770935 C 687.157837 309.387207 687.667542 290.697418 704.31842 287.469147 C 706.3573 287.129364 708.056335 286.959442 709.415649 286.789551 C 711.114746 286.619629 712.64386 286.279846 714.342957 285.090454 C 715.022583 286.789551 715.87207 287.469147 719.270203 287.469147 C 718.590637 292.056671 715.87207 294.605255 712.983643 296.983948 Z"/>
            <path id="path30" fill="#000000" stroke="none" d="M 698.711487 295.11496 C 701.260071 296.983948 706.017517 294.945099 704.828125 290.867279 C 701.260071 290.867279 699.221252 292.226593 698.711487 295.11496 Z M 714.852661 288.82843 C 714.342957 290.187683 713.323486 292.056671 713.493408 295.454803 C 713.493408 295.964508 713.153564 296.474243 712.983643 295.624725 C 712.813782 292.396484 713.493408 290.867279 714.173035 288.82843 C 714.852661 287.978912 715.022583 288.148834 714.852661 288.82843 L 714.852661 288.82843 Z"/>
            <path id="path31" fill="#000000" stroke="none" d="M 714.173035 288.318695 C 713.493408 289.677979 711.964233 292.056671 711.964233 295.454803 C 711.964233 295.964508 711.454529 296.474243 711.454529 295.454803 C 711.454529 292.226593 712.813782 290.017761 713.66333 288.148834 C 714.173035 287.469147 714.512878 287.80899 714.173035 288.318695 Z M 713.66333 287.80899 C 712.983643 288.998352 710.435059 292.056671 710.095276 295.454803 C 710.095276 295.964508 709.58551 296.474243 709.58551 295.454803 C 709.925354 292.226593 712.134094 289.338135 713.153564 287.639069 C 713.66333 286.959442 713.833191 287.299286 713.66333 287.80899 Z M 712.983643 287.129364 C 712.134094 288.318695 709.075806 292.056671 708.396179 295.454803 C 708.226257 295.964508 707.716553 296.304352 707.886414 295.454803 C 708.735962 292.226593 711.284607 288.658508 712.64386 286.959442 C 713.153564 286.279846 713.323486 286.619629 712.983643 287.129364 Z"/>
            <path id="path32" fill="#000000" stroke="none" d="M 602.034424 202.005951 C 601.184875 199.967041 600.505249 197.928192 599.315918 196.059204 C 592.17981 184.335632 584.533997 177.199524 572.640503 170.403259 C 570.091919 168.874084 567.033569 168.36441 563.805359 167.514862 C 562.106262 167.514862 560.407227 167.34494 558.70813 167.175018 C 557.68866 166.665314 556.499329 165.30603 555.479919 164.796356 C 551.572021 162.247742 541.377625 156.980621 538.489197 164.11673 C 536.620239 168.534271 541.207703 172.951843 542.906799 175.330536 C 544.09613 176.859741 545.625305 178.728668 546.474854 180.427765 C 546.984558 181.617126 547.15448 182.806488 547.494263 183.995819 C 548.513733 187.054169 549.703064 190.452301 551.062317 193.170776 C 551.741943 194.699982 552.591492 196.059204 553.610901 197.418457 C 554.120667 198.098114 555.140076 198.437897 555.309998 199.79718 C 554.290527 201.156433 554.290527 203.195343 553.780823 204.894409 C 551.232239 212.710083 552.251648 222.224884 555.819702 228.001709 C 556.839172 229.700775 559.557678 233.438751 563.125732 232.079529 C 566.184021 230.890137 565.504395 226.9823 566.353943 223.414246 C 566.523865 222.564728 566.353943 222.054962 566.863647 221.545258 L 566.863647 221.715179 C 567.883118 223.584167 568.732605 225.453094 569.752075 227.492004 C 571.960876 230.890137 575.528931 234.2883 578.757141 236.666962 C 580.456238 237.856354 581.645569 240.065125 583.85437 240.74472 L 583.85437 240.57486 L 583.684448 240.57486 C 583.344666 239.895203 582.665039 239.725342 582.155273 239.215576 C 580.965942 238.026276 579.606689 236.49707 578.587219 235.137817 C 575.698853 231.22998 573.150208 226.9823 570.941406 222.564728 C 569.921997 220.355896 568.902527 218.147125 568.05304 215.938354 C 567.713196 215.088806 567.713196 213.899445 567.033569 213.38974 C 566.01416 214.918915 564.484985 216.278137 563.805359 218.147125 C 562.446106 221.035553 562.276184 224.773499 561.93634 228.511475 C 561.596558 228.511475 561.766479 228.511475 561.596558 228.681366 C 559.387756 228.171631 558.70813 225.792938 557.858582 223.92395 C 555.819702 218.996674 555.479919 211.180939 557.178955 205.574005 C 557.68866 204.044861 559.7276 199.627258 558.878052 198.267975 C 558.538208 196.908752 557.009033 196.229126 556.329468 195.209686 C 555.479919 193.850433 554.460449 192.321228 553.780823 190.792084 C 552.081787 186.884247 551.232239 182.636566 549.533142 178.89859 C 548.683655 177.029602 547.324341 175.330536 546.13501 173.63147 C 544.775757 171.762543 543.416504 170.403259 542.397034 168.194489 C 542.057251 167.514862 541.547485 166.155579 542.057251 165.30603 C 542.227173 164.796356 542.397034 164.626434 543.076721 164.456512 C 543.926208 163.776886 546.474854 164.626434 547.494263 165.136139 C 550.042847 166.155579 552.251648 167.175018 554.290527 168.534271 C 555.309998 169.213928 556.329468 170.573181 557.518799 170.912994 L 559.047913 170.912994 C 561.256714 171.422699 563.805359 171.082855 565.844238 171.592621 C 569.412292 172.781952 572.810425 174.481018 575.698853 176.350006 C 584.703918 182.126831 592.17981 190.112457 597.107117 199.79718 C 597.446899 200.476807 597.786743 201.326355 598.126526 202.005951 L 602.034424 202.005951 Z"/>
            <path id="path33" fill="#000000" stroke="none" d="M 561.256714 177.539368 C 560.067383 177.539368 559.217834 177.70929 558.368347 177.87915 L 558.368347 178.049072 L 558.538208 178.049072 C 559.047913 179.068512 560.067383 179.91806 560.747009 180.9375 C 561.256714 181.95697 561.766479 183.146271 562.276184 184.165741 C 562.276184 184.165741 562.446106 183.995819 562.446106 183.995819 C 563.465515 183.316193 563.975281 182.126831 563.975281 180.597656 C 563.635437 180.087982 563.465515 179.578217 563.125732 179.068512 C 562.615967 178.388885 561.766479 178.049072 561.256714 177.539368 L 561.256714 177.539368 Z"/>
            <path id="path34" fill="#000000" stroke="none" d="M 594.558533 269.798828 L 534.411438 269.798828 L 526.255859 158.169983 L 527.27533 158.169983 L 526.935547 157.150513 C 545.285461 152.053314 564.315063 148.315338 583.85437 145.936646 C 600.675171 143.897766 618.005676 143.048218 636.695435 143.048218 L 636.695435 144.067657 L 637.714905 144.067657 L 637.714905 204.044861 L 594.558533 204.044861 L 594.558533 214.409149 L 594.558533 232.589233 L 594.558533 232.589233 L 594.558533 269.798828 Z M 536.280396 267.92984 L 592.519592 267.92984 L 592.519592 232.589233 L 592.519592 232.589233 L 592.519592 214.409149 L 592.519592 202.005951 L 635.676025 202.005951 L 635.676025 144.917206 C 617.495972 144.917206 600.675171 145.936646 584.024231 147.805634 C 564.99469 150.014404 546.13501 153.75238 528.124878 158.679688 L 536.280396 267.92984 Z"/>
            <g id="g15">
                <path id="path35" fill="#000000" stroke="none" d="M 606.961731 265.041473 L 606.961731 265.041473 C 606.961731 249.410004 618.515381 236.666962 634.656555 236.666962 C 643.491699 236.666962 649.098694 239.55542 654.195862 243.803101 C 654.875488 244.312775 655.385193 245.162323 655.385193 246.351685 C 655.385193 248.050751 653.856018 249.410004 652.326904 249.410004 C 651.647278 249.410004 650.797729 249.070221 650.287964 248.730377 C 646.040283 244.992401 641.282959 242.443817 634.656555 242.443817 C 622.59314 242.443817 613.418152 252.298431 613.418152 264.871552 L 613.418152 265.041473 C 613.418152 277.784485 622.59314 287.639069 634.656555 287.639069 C 641.45282 287.639069 646.210205 285.260376 650.96759 281.012695 C 651.477356 280.503021 652.156982 280.163177 653.006531 280.163177 C 654.705566 280.163177 655.894958 281.5224 655.894958 283.051605 C 655.894958 283.901154 655.555115 284.750671 654.875488 285.260376 C 649.438477 290.187683 643.491699 293.246033 634.656555 293.246033 C 618.515381 293.246033 606.961731 280.842804 606.961731 265.041473 Z"/>
                <path id="path36" fill="#000000" stroke="none" d="M 666.768982 236.836884 C 665.239807 237.006805 664.220398 238.366058 664.220398 239.895203 L 664.220398 259.094727 C 664.220398 260.793793 662.861084 262.322937 660.992126 262.322937 L 660.992126 262.322937 L 642.302368 262.322937 C 641.282959 262.322937 640.433411 261.813232 639.753784 260.963715 C 637.205139 257.735443 632.617676 257.055817 629.389465 259.604431 C 626.161194 262.153015 625.481567 266.74054 628.030212 269.96875 C 630.578796 273.196991 635.16626 273.876587 638.39447 271.328003 C 639.074158 270.818298 639.583862 270.308594 639.923645 269.628906 C 640.433411 268.779388 641.45282 268.269684 642.47229 268.269684 L 660.822266 268.269684 C 662.521301 268.269684 664.050476 269.628906 664.050476 271.497894 L 664.050476 271.497894 L 664.050476 289.677979 C 664.050476 291.207123 665.069885 292.566376 666.59906 292.736267 C 668.298157 293.076111 669.827271 291.886749 670.167114 290.187683 C 670.167114 290.017761 670.167114 289.8479 670.167114 289.677979 L 670.167114 239.55542 C 670.167114 237.856354 668.807861 236.49707 667.108765 236.49707 C 667.108765 236.836884 666.938904 236.836884 666.768982 236.836884 Z"/>
            </g>
        </g>
    </g>
</svg>
